<?xml version="1.0" encoding="utf-8"?>
<!-- Generator: Adobe Illustrator 24.2.3, SVG Export Plug-In . SVG Version: 6.00 Build 0)  -->
<svg version="1.1" id="Layer_1" xmlns="http://www.w3.org/2000/svg" xmlns:xlink="http://www.w3.org/1999/xlink" x="0px" y="0px"
	 viewBox="0 0 48 48" enable-background="new 0 0 48 48" xml:space="preserve">
<g>
	<g>
		<g>
			<path fill="#333333" d="M24.8,26.6c-0.4-0.2-0.8,0-1,0.3l-1.6,2.7c-0.2,0.3,0,0.7,0.3,0.9c0.1,0,0.2,0.1,0.3,0.1
				c0.3,0,0.5-0.1,0.7-0.3l1.6-2.7C25.4,27.1,25.2,26.7,24.8,26.6z"/>
		</g>
	</g>
	<g>
		<g>
			<path fill="#333333" d="M26.2,24.3c-0.4-0.2-0.8-0.1-1,0.3L25,24.9c-0.2,0.3-0.1,0.7,0.3,0.9c0.1,0.1,0.2,0.1,0.4,0.1
				c0.3,0,0.5-0.1,0.7-0.3l0.2-0.3C26.7,24.8,26.6,24.5,26.2,24.3z"/>
		</g>
	</g>
	<g>
		<g>
			<path fill="#333333" d="M42.3,30.7C42.3,30.7,42.3,30.7,42.3,30.7C42.3,30.7,42.3,30.6,42.3,30.7C42.3,30.6,42.3,30.6,42.3,30.7
				c0-0.1,0-0.1,0-0.1c0,0,0,0,0,0c0,0,0,0,0,0c0,0,0,0,0,0c0,0,0,0,0,0c0,0,0,0,0,0c0,0,0,0,0-0.1c0,0,0,0,0,0l-5.1-7.6
				c-0.1-0.2-0.3-0.3-0.6-0.3c-0.2,0-0.5,0.1-0.6,0.2L33,25.5L28,17c-0.1-0.2-0.4-0.4-0.7-0.4c0,0,0,0,0,0c-0.3,0-0.5,0.1-0.7,0.3
				l-8.2,13.7c-1-0.1-2-0.2-3.2-0.2c-0.8,0-1.5,0.1-2.2,0.2v-1.2c2.7-0.4,4.8-2.8,4.8-5.6c0-3.1-2.5-5.7-5.5-5.7
				c-3.1,0-5.5,2.5-5.5,5.7c0,2.9,2.1,5.2,4.8,5.6V31c-3.1,0.8-5.4,2.2-5.6,2.3c-0.2,0.1-0.3,0.3-0.3,0.5v5.3c0,0.4,0.3,0.6,0.7,0.6
				h35.2c0.4,0,0.7-0.3,0.7-0.6L42.3,30.7C42.3,30.7,42.3,30.7,42.3,30.7z M36.4,24.2l4.3,6.5c-0.4,0.4-1.4,1.3-3.6,1.8l-3.4-5.7
				L36.4,24.2z M27.4,18.8l4.8,8.2c0,0,0,0,0,0l3.5,5.9c-1,0.1-2.1,0.2-3.4,0.2c-3.9,0-6.4-0.7-8.8-1.3c-1.1-0.3-2.2-0.6-3.4-0.8
				L27.4,18.8z M10.4,26.5l1.1,1v0.7c-1.9-0.4-3.3-2.2-3.3-4.3c0-2.4,1.8-4.4,4-4.4c2.2,0,4,2,4,4.4c0,2.1-1.4,3.9-3.3,4.3v-0.7
				l1.9-1.6c0.3-0.3,0.3-0.7,0-0.9c-0.3-0.3-0.8-0.3-1.1,0l-1.5,1.3l-0.8-0.7c-0.3-0.3-0.8-0.3-1.1,0C10.1,25.8,10.1,26.2,10.4,26.5
				z M7.2,38.5v-4.3c1-0.6,4.5-2.4,8.1-2.4c1.3,0,2.5,0.1,3.5,0.3c0,0,0,0,0,0c1.5,0.2,2.8,0.6,4.2,0.9c2.5,0.7,5.2,1.3,9.3,1.3
				c1.9,0,3.4-0.2,4.7-0.4c0,0,0.1,0,0.1,0c1.8-0.4,3-1,3.8-1.5v6.2L7.2,38.5L7.2,38.5z"/>
		</g>
	</g>
	<g>
		<g>
			<path fill="#333333" d="M25,36.5H8.8c-0.4,0-0.7,0.3-0.7,0.6s0.3,0.6,0.7,0.6H25c0.4,0,0.7-0.3,0.7-0.6S25.4,36.5,25,36.5z"/>
		</g>
	</g>
	<g>
		<g>
			<path fill="#333333" d="M34.9,36.5h-7.3c-0.4,0-0.7,0.3-0.7,0.6s0.3,0.6,0.7,0.6h7.3c0.4,0,0.7-0.3,0.7-0.6S35.3,36.5,34.9,36.5z
				"/>
		</g>
	</g>
	<g>
		<g>
			<path fill="#333333" d="M38.9,36.5h-1.5c-0.4,0-0.7,0.3-0.7,0.6s0.3,0.6,0.7,0.6h1.5c0.4,0,0.7-0.3,0.7-0.6S39.3,36.5,38.9,36.5z
				"/>
		</g>
	</g>
	<g>
		<g>
			<path fill="#333333" d="M24.4,10.5c-0.8-1.4-2.6-2.3-4.4-2.3c-1.9,0-3.6,0.9-4.4,2.3c-2.3,0-4.2,1.7-4.2,3.7
				c0,0.4,0.3,0.6,0.7,0.6h15.7c0.4,0,0.7-0.3,0.7-0.6C28.6,12.2,26.7,10.6,24.4,10.5z M13,13.6c0.3-1,1.4-1.8,2.7-1.8
				c0.1,0,0.2,0,0.3,0c0.3,0,0.7-0.1,0.8-0.4c0.5-1.1,1.8-1.9,3.2-1.9c1.4,0,2.7,0.8,3.2,1.9c0.1,0.3,0.4,0.4,0.8,0.4
				c0.1,0,0.2,0,0.3,0c1.3,0,2.4,0.8,2.7,1.8H13z"/>
		</g>
	</g>
</g>
</svg>
