<?xml version="1.0" encoding="utf-8"?>
<!-- Generator: Adobe Illustrator 24.2.3, SVG Export Plug-In . SVG Version: 6.00 Build 0)  -->
<svg version="1.1" id="Layer_1" xmlns="http://www.w3.org/2000/svg" xmlns:xlink="http://www.w3.org/1999/xlink" x="0px" y="0px"
	 viewBox="0 0 48 48" enable-background="new 0 0 48 48" xml:space="preserve">
<g>
	<g>
		<g>
			<path fill="#333333" d="M37.1,7.6h-7.2H18.1h-7.2c-0.4,0-0.7,0.3-0.7,0.7v7.9c0,0.4,0.3,0.7,0.7,0.7h7.2h11.8h7.2
				c0.4,0,0.7-0.3,0.7-0.7V8.3C37.7,7.9,37.4,7.6,37.1,7.6z M17.5,15.5h-5.9V8.9h5.9V15.5z M29.2,15.5H18.8V8.9h10.5L29.2,15.5
				L29.2,15.5z M36.4,15.5h-5.9V8.9h5.9V15.5z"/>
		</g>
	</g>
	<g>
		<g>
			<rect x="22" y="33.8" fill="#333333" width="3.9" height="1.3"/>
		</g>
	</g>
	<g>
		<g>
			<rect x="22" y="33.8" fill="#333333" width="3.9" height="1.3"/>
		</g>
	</g>
	<g>
		<g>
			<path fill="#333333" d="M37.4,26.6h-1.6v-3.9c0-0.4-0.3-0.7-0.7-0.7h-6.5c-0.4,0-0.7,0.3-0.7,0.7v3.9H10.6
				c-1.6,0-2.9,1.3-2.9,2.9v2.3v6.6v2H9v-1.3h15h15v1.3h1.3v-2v-6.6v-2.3C40.3,27.9,39,26.6,37.4,26.6z M29.2,23.3h5.2v3.3h-5.2
				L29.2,23.3L29.2,23.3z M23.3,37.8H9v-5.2h14.4V37.8z M39,37.8H24.7v-5.2H39V37.8z M39,31.2H24H9v-1.6c0-0.9,0.7-1.6,1.6-1.6h18
				h6.5h2.3c0.9,0,1.6,0.7,1.6,1.6V31.2z"/>
		</g>
	</g>
</g>
</svg>
