<?xml version="1.0" encoding="utf-8"?>
<!-- Generator: Adobe Illustrator 24.2.3, SVG Export Plug-In . SVG Version: 6.00 Build 0)  -->
<svg version="1.1" id="Layer_1" xmlns="http://www.w3.org/2000/svg" xmlns:xlink="http://www.w3.org/1999/xlink" x="0px" y="0px"
	 viewBox="0 0 48 48" enable-background="new 0 0 48 48" xml:space="preserve">
<g>
	<path fill="#333333" d="M33.2,10.6c0-0.1,0-0.1,0-0.2v-1c0-0.9-0.9-1.6-2-1.6H21c-1.1,0-2,0.7-2,1.6v1c0,0.1,0,0.1,0,0.2l0.6,2.1
		v4.8L19,19.2c0,0,0,0,0,0h-3.2c-0.6,0-1,0.4-1,0.8v1.6c0,0.5,0.4,0.8,1,0.8s1-0.4,1-0.8v-0.7H19v1.8c0,0.5,0.4,0.8,1,0.8h1.4
		l-0.3,1.1H20c-0.6,0-1,0.4-1,0.8v1h-3.2c-0.4,0-0.7,0.2-0.9,0.4c-0.2,0.3-0.2,0.6,0,0.8l4,5.3v6.4c0,0.5,0.4,0.8,1,0.8h12.2
		c0.6,0,1-0.4,1-0.8v-14c0-0.5-0.4-0.8-1-0.8h-1.1l-0.3-1.1h1.4c0.6,0,1-0.4,1-0.8v-3.3c0-0.1,0-0.2-0.1-0.3l-0.7-1.5
		c0,0,0-0.1,0-0.1c0-0.1,0-0.1,0-0.2v-4.5L33.2,10.6z M21.6,16.7v-3.4h8.8v3.4H21.6z M21,9.4h10.2v0.9l-0.4,1.4h-9.4L21,10.3V9.4z
		 M17.6,28.1H19v1.8L17.6,28.1z M31.2,38.6H21V26.3h10.2V38.6z M29.1,24.6h-6l0.3-1.1h5.4L29.1,24.6z M31.2,21.8h-1.6c0,0,0,0,0,0
		h-7c0,0,0,0,0,0H21v-2.3l0.4-1.2h9.2l0.5,1.2L31.2,21.8L31.2,21.8z"/>
</g>
</svg>
