
<svg version="1.1" id="Layer_1" xmlns="http://www.w3.org/2000/svg" xmlns:xlink="http://www.w3.org/1999/xlink" x="0px" y="0px"
	 viewBox="0 0 48 48" enable-background="new 0 0 48 48" xml:space="preserve">
<g>
	<g>
		<g>
			<path fill="curentColor" d="M30.8,10.3c-2.8-2.8-7.4-2.8-10.2,0c-1.4,1.4-2.1,3.3-2.1,5.2l-7.4,9.7c0,0,0,0,0,0
				c-0.8,1.1-0.9,2.5-0.3,3.6l-2.3,2.3c-0.4,0.4-0.4,1.1,0,1.5s1.1,0.4,1.5,0l2.3-2.3c1.1,0.6,2.5,0.5,3.6-0.3c0,0,0,0,0,0l9.7-7.4
				c1.9,0,3.8-0.7,5.2-2.1c0,0,0,0,0,0c0,0,0,0,0,0C33.6,17.7,33.6,13.1,30.8,10.3z M14.6,28.4c-0.5,0.4-1.3,0.3-1.8-0.1
				c-0.5-0.5-0.5-1.2-0.1-1.8l6.9-9.1l4,4L14.6,28.4z M25.7,20.5l-5.1-5.1c0-1,0.3-2,0.8-2.8l7.1,7.1C27.7,20.3,26.8,20.5,25.7,20.5
				z M30,18.2l-7.1-7.1c2-1.3,4.7-1.1,6.5,0.7C31.1,13.5,31.4,16.2,30,18.2z"/>
		</g>
	</g>
	<g>
		<g>
			<path fill="curentColor" d="M20.7,20.5c-0.4-0.4-1.1-0.4-1.5,0L17.7,22c-0.4,0.4-0.4,1.1,0,1.5c0.2,0.2,0.5,0.3,0.7,0.3
				c0.3,0,0.5-0.1,0.7-0.3l1.5-1.5C21.1,21.6,21.1,20.9,20.7,20.5z"/>
		</g>
	</g>
	<g>
		<g>
			<path fill="curentColor" d="M39.3,20.8c-0.3-0.2-0.6-0.2-1-0.1l-10.3,4.1c-0.4,0.2-0.6,0.5-0.6,1c0,0.4,0,7.9,0,8.2
				c-0.5-0.2-1.1-0.3-1.7-0.3c-2.2,0-3.8,1.4-3.8,3.1c0,1.7,1.6,3.1,3.8,3.1c2.2,0,3.8-1.4,3.8-3.1v-6.2l8.2-3.3v4.6
				c-0.5-0.2-1.1-0.3-1.7-0.3c-2.2,0-3.8,1.4-3.8,3.1c0,1.7,1.6,3.1,3.8,3.1c2.2,0,3.8-1.4,3.8-3.1c0-0.5,0-12.6,0-13
				C39.8,21.3,39.6,20.9,39.3,20.8z M25.7,37.7c-1,0-1.7-0.5-1.7-1s0.7-1,1.7-1s1.7,0.5,1.7,1C27.4,37.2,26.7,37.7,25.7,37.7z
				 M37.7,25l-8.2,3.3v-1.9l8.2-3.3V25z M36,35.7c-1,0-1.7-0.5-1.7-1s0.7-1,1.7-1s1.7,0.5,1.7,1C37.7,35.1,37,35.7,36,35.7z"/>
		</g>
	</g>
</g>
</svg>
