<?xml version="1.0" encoding="utf-8"?>
<!-- Generator: Adobe Illustrator 24.2.3, SVG Export Plug-In . SVG Version: 6.00 Build 0)  -->
<svg version="1.1" id="Layer_1" xmlns="http://www.w3.org/2000/svg" xmlns:xlink="http://www.w3.org/1999/xlink" x="0px" y="0px"
	 viewBox="0 0 48 48" enable-background="new 0 0 48 48" xml:space="preserve">
<g>
	<g>
		<g>
			<path fill="#333333" d="M12.7,8.2h-2.2v4.4h1.1v-1.1h1.1c0.9,0,1.6-0.7,1.6-1.6C14.3,9,13.5,8.2,12.7,8.2z M12.7,10.4h-1.1V9.3
				h1.1c0.3,0,0.5,0.2,0.5,0.5C13.2,10.2,12.9,10.4,12.7,10.4z"/>
			<path fill="#333333" d="M32.1,34.5c0-3-2.4-5.5-5.4-5.5s-5.4,2.5-5.4,5.5c0,1.8,0.9,3.4,2.2,4.4h-8.1v-2.2h-1.6v-12h-1.1v-9.8
				h2.5l1.9-4.4L15.2,6H9l-1.9,4.4L9,14.8h2.5v9.8h-1.1v12H8.9v2.2H7.2V40h1.6h6.5h25.5v-1.1H30C31.3,37.9,32.1,36.3,32.1,34.5z
				 M9.8,13.7l-1.4-3.3l1.4-3.3h4.7l1.4,3.3l-1.4,3.3H9.8z M11.6,25.7h1.1v10.9h-1.1V25.7z M14.3,38.9H9.9v-1.1h0.5h3.2h0.5V38.9z
				 M26.7,38.9c-2.4,0-4.3-2-4.3-4.4c0-2.4,1.9-4.4,4.3-4.4s4.3,2,4.3,4.4C31.1,36.9,29.1,38.9,26.7,38.9z"/>
			<path fill="#333333" d="M37.1,10.4c-2.2,0-4.2,1.5-4.7,3.7l-1.8,6.7h-2.8c-3.6,0-7,2-8.9,5.1l-1.4,0.5v3.7h-2.2v4.4h2.2h1.1h1.6
				v-1.1h-1.6v-3.3v-2.9l1.5-0.5c1.9-0.7,4-1,6-1h0.4c2.4,0,4.6,1.1,6.1,3c1.1,1.3,1.7,3,1.7,4.7h-1.1v1.1h1.1h0.5h6v-1.1h-5.4
				c0-2-0.7-3.9-1.9-5.4c-1.7-2.1-4.2-3.4-6.9-3.4h-0.4c-1.9,0-3.7,0.3-5.5,0.8c1.7-2.2,4.4-3.5,7.2-3.5h3.7l2-7.5
				c0.4-1.7,1.9-2.9,3.7-2.9h3.7v-1.1L37.1,10.4L37.1,10.4z M17.5,33.4h-1.1v-2.2h1.1V33.4z"/>
			<path fill="#333333" d="M26.7,31.8c-1.5,0-2.7,1.2-2.7,2.7s1.2,2.7,2.7,2.7c1.5,0,2.7-1.2,2.7-2.7C29.4,33,28.2,31.8,26.7,31.8z
				 M26.7,36.1c-0.9,0-1.6-0.7-1.6-1.6c0-0.9,0.7-1.6,1.6-1.6c0.9,0,1.6,0.7,1.6,1.6C28.4,35.4,27.6,36.1,26.7,36.1z"/>
			<path fill="#333333" d="M34.7,14.4l-1.6,6c-0.1,0.5,0,1,0.3,1.4c0.3,0.4,0.8,0.6,1.3,0.6h6.2v-1.1h-6.2c-0.2,0-0.3-0.1-0.4-0.2
				c-0.1-0.1-0.1-0.3-0.1-0.5l1.6-6c0.1-0.2,0.3-0.4,0.5-0.4h4.6v-1.1h-4.6C35.5,13.2,34.8,13.7,34.7,14.4z"/>
		</g>
	</g>
</g>
</svg>
