<?xml version="1.0" encoding="utf-8"?>
<!-- Generator: Adobe Illustrator 24.2.3, SVG Export Plug-In . SVG Version: 6.00 Build 0)  -->
<svg version="1.1" id="Layer_1" xmlns="http://www.w3.org/2000/svg" xmlns:xlink="http://www.w3.org/1999/xlink" x="0px" y="0px"
	 viewBox="0 0 48 48" enable-background="new 0 0 48 48" xml:space="preserve">
<g>
	<path fill="curentColor" d="M43.7,30l-6.3-5v-2c0-0.3-0.1-0.5-0.3-0.7l-12.5-9.9c-0.3-0.2-0.7-0.2-1,0L11,22.2
		c-0.2,0.2-0.3,0.4-0.3,0.7v2l-6.3,5C4.1,30.1,4,30.4,4,30.7v8.9c0,0.5,0.4,0.9,0.8,0.9h6.7h6.7h11.6h6.7h6.7c0.5,0,0.8-0.4,0.8-0.9
		v-8.9C44,30.4,43.9,30.1,43.7,30L43.7,30z M24.9,38.7h-1.8v-4.4h1.8L24.9,38.7L24.9,38.7z M26.6,38.7v-5.3c0-0.5-0.4-0.9-0.8-0.9
		h-3.5c-0.5,0-0.8,0.4-0.8,0.9v5.3h-4.1h-5V23.4L24,14.1l11.7,9.2v15.3h-5H26.6z M5.7,31.1l5-4v11.6h-5V31.1z M42.3,38.7h-5V27.2
		l5,4V38.7z"/>
	<path fill="curentColor" d="M5.3,24.3L24,9.5l18.7,14.8c0.2,0.1,0.3,0.2,0.5,0.2c0.3,0,0.5-0.1,0.7-0.4c0.3-0.4,0.2-0.9-0.2-1.2
		L24.5,7.7c-0.3-0.2-0.7-0.2-1,0L4.3,22.9c-0.4,0.3-0.4,0.8-0.2,1.2C4.4,24.5,5,24.6,5.3,24.3z"/>
</g>
</svg>
