<?xml version="1.0" encoding="utf-8"?>
<!-- Generator: Adobe Illustrator 24.2.3, SVG Export Plug-In . SVG Version: 6.00 Build 0)  -->
<svg version="1.1" id="Layer_1" xmlns="http://www.w3.org/2000/svg" xmlns:xlink="http://www.w3.org/1999/xlink" x="0px" y="0px"
	 viewBox="0 0 48 48" enable-background="new 0 0 48 48" xml:space="preserve">
<g>
	<path fill="#333333" d="M14.6,36.2c-0.4,0-0.8,0.3-0.8,0.7v2.9c0,0.4,0.4,0.7,0.8,0.7c0.4,0,0.8-0.3,0.8-0.7v-2.9
		C15.4,36.5,15.1,36.2,14.6,36.2z"/>
	<path fill="#333333" d="M21.2,36.2c-0.4,0-0.8,0.3-0.8,0.7v2.9c0,0.4,0.4,0.7,0.8,0.7c0.4,0,0.8-0.3,0.8-0.7v-2.9
		C22,36.5,21.6,36.2,21.2,36.2z"/>
	<path fill="#333333" d="M27.7,36.2c-0.4,0-0.8,0.3-0.8,0.7v2.9c0,0.4,0.4,0.7,0.8,0.7c0.4,0,0.8-0.3,0.8-0.7v-2.9
		C28.5,36.5,28.2,36.2,27.7,36.2z"/>
	<path fill="#333333" d="M11.3,31c-0.4,0-0.8,0.3-0.8,0.7v2.9c0,0.4,0.4,0.7,0.8,0.7c0.4,0,0.8-0.3,0.8-0.7v-2.9
		C12.1,31.3,11.8,31,11.3,31z"/>
	<path fill="#333333" d="M17.9,31c-0.4,0-0.8,0.3-0.8,0.7v2.9c0,0.4,0.4,0.7,0.8,0.7c0.4,0,0.8-0.3,0.8-0.7v-2.9
		C18.7,31.3,18.3,31,17.9,31z"/>
	<path fill="#333333" d="M24.5,31c-0.4,0-0.8,0.3-0.8,0.7v2.9c0,0.4,0.4,0.7,0.8,0.7c0.4,0,0.8-0.3,0.8-0.7v-2.9
		C25.2,31.3,24.9,31,24.5,31z"/>
	<path fill="#333333" d="M31,31c-0.4,0-0.8,0.3-0.8,0.7v2.9c0,0.4,0.4,0.7,0.8,0.7s0.8-0.3,0.8-0.7v-2.9C31.8,31.3,31.5,31,31,31z"
		/>
	<path fill="#333333" d="M39,7.5c-0.4,0-0.8,0.3-0.8,0.7V9H31c-6.3,0-11.4,4.5-11.9,10.1h-0.7c-0.4,0-0.8,0.3-0.8,0.7v1.9
		c-1.9,0.5-3.6,1.4-5.1,2.6c-1.4,1.2-2.6,2.7-3.3,4.3H9c-0.4,0-0.8,0.3-0.8,0.7c0,0.4,0.4,0.7,0.8,0.7h0.8h22.7h0.8
		c0.4,0,0.8-0.3,0.8-0.7c0-0.4-0.4-0.7-0.8-0.7h-0.2c-0.7-1.6-1.8-3.1-3.3-4.3c-1.5-1.2-3.2-2.1-5.1-2.6v-1.9c0-0.4-0.4-0.7-0.8-0.7
		h-0.6c0.4-3.6,3.7-6.4,7.7-6.4h7.2v0.7c0,0.4,0.4,0.7,0.8,0.7c0.4,0,0.8-0.3,0.8-0.7V8.2C39.8,7.8,39.4,7.5,39,7.5z M23.1,20.5v1.1
		h-3.9v-1.1H23.1z M31.4,28.7H11c1.4-2.8,4.2-4.9,7.5-5.6h5.5C27.2,23.8,30,25.9,31.4,28.7z M31,11.3c-4.9,0-8.9,3.5-9.3,7.8h-0.9
		c0.4-4.9,4.9-8.7,10.3-8.7h7.2v0.9H31z"/>
</g>
</svg>
