<?xml version="1.0" encoding="utf-8"?>
<!-- Generator: Adobe Illustrator 24.2.3, SVG Export Plug-In . SVG Version: 6.00 Build 0)  -->
<svg version="1.1" id="Layer_1" xmlns="http://www.w3.org/2000/svg" xmlns:xlink="http://www.w3.org/1999/xlink" x="0px" y="0px"
	 viewBox="0 0 48 48" enable-background="new 0 0 48 48" xml:space="preserve">
<g>
	<path fill="#333333" d="M28.1,14v-0.5v-1.4v-1.1c0-2-1.8-3.7-4-3.7H24c-2.2,0-4,1.6-4,3.7v1.1v1.4V14h-9.6v26.6h27.4V14H28.1z
		 M21.4,11.1c0-1.3,1.1-2.3,2.5-2.3H24c1.4,0,2.5,1,2.5,2.3v1.1h-5.1V11.1L21.4,11.1z M26.6,13.6V17h-5.1v-3.4H26.6z M36.2,39.2
		H11.8V15.4h8.1v2.9h8.1v-2.9h8.1V39.2L36.2,39.2z"/>
	<path fill="#333333" d="M23.8,25.2l1,1l2.6-2c-0.9,5.5-6,9.7-12.3,9.7v1.4c7,0,12.9-4.8,13.8-10.9l2.2,2.3l1.1-0.9l-3.9-4.1
		L23.8,25.2z"/>
	<path fill="#333333" d="M19,21.6l-3.9,4.1l1.1,0.9l2.2-2.3c0.9,6.2,6.7,10.9,13.8,10.9v-1.4c-6.2,0-11.4-4.2-12.3-9.7l2.6,2l1-1
		L19,21.6z"/>
</g>
</svg>
