<?xml version="1.0" encoding="utf-8"?>
<!-- Generator: Adobe Illustrator 24.2.3, SVG Export Plug-In . SVG Version: 6.00 Build 0)  -->
<svg version="1.1" id="Layer_1" xmlns="http://www.w3.org/2000/svg" xmlns:xlink="http://www.w3.org/1999/xlink" x="0px" y="0px"
	 viewBox="0 0 48 48" enable-background="new 0 0 48 48" xml:space="preserve">
<g>
	<g>
		<g>
			<path fill="curentColor" d="M34.7,26.4c-0.5,0-1-0.2-1.3-0.6c-5.1-5.6-13.5-5.6-18.7,0c-0.7,0.8-2,0.8-2.7,0c-0.7-0.8-0.7-2.1,0-3
				c6.6-7.3,17.4-7.3,24.1,0c0.7,0.8,0.7,2.1,0,3C35.6,26.2,35.2,26.4,34.7,26.4z"/>
		</g>
		<g>
			<path fill="curentColor" d="M29.5,32c-0.5,0-1-0.2-1.3-0.6c-1.1-1.2-2.6-1.9-4.2-1.9c-1.6,0-3.1,0.7-4.2,1.9c-0.7,0.8-2,0.8-2.7,0
				s-0.7-2.1,0-3c1.8-2,4.3-3.1,6.9-3.1s5,1.1,6.9,3.1c0.7,0.8,0.7,2.1,0,3C30.5,31.8,30,32,29.5,32z"/>
		</g>
		<g>
			<ellipse fill="curentColor" cx="24" cy="36" rx="2.5" ry="2.8"/>
		</g>
		<g>
			<path fill="curentColor" d="M39.9,20.6c-0.5,0-1-0.2-1.3-0.6c-8-8.8-21.1-8.8-29.1,0c-0.7,0.8-2,0.8-2.7,0s-0.7-2.1,0-3
				C11.3,12,17.5,9.2,24,9.2s12.7,2.8,17.3,7.8c0.7,0.8,0.7,2.1,0,3C40.9,20.4,40.4,20.6,39.9,20.6z"/>
		</g>
	</g>
</g>
</svg>
