<svg width="16" height="16" viewBox="0 0 16 16" fill="none" xmlns="http://www.w3.org/2000/svg">
<g id="icons/Burger/Line">
<g id="Shape">
<path fill-rule="evenodd" clip-rule="evenodd" d="M1.33331 6.66667C1.33331 4.08934 3.42265 2 5.99998 2H9.99998C12.5773 2 14.6666 4.08934 14.6666 6.66667C14.6666 7.77124 13.7712 8.66667 12.6666 8.66667H3.33331C2.22874 8.66667 1.33331 7.77124 1.33331 6.66667ZM5.99998 3.33333H9.99998C11.8409 3.33333 13.3333 4.82572 13.3333 6.66667C13.3333 7.03486 13.0348 7.33333 12.6666 7.33333H3.33331C2.96512 7.33333 2.66665 7.03486 2.66665 6.66667C2.66665 4.82572 4.15903 3.33333 5.99998 3.33333Z" fill="#777E91"/>
<path fill-rule="evenodd" clip-rule="evenodd" d="M14.6666 12C14.6666 13.1046 13.7712 14 12.6666 14H3.33331C2.22874 14 1.33331 13.1046 1.33331 12C1.33331 10.8954 2.22874 10 3.33331 10H12.6666C13.7712 10 14.6666 10.8954 14.6666 12ZM12.6666 12.6667H3.33331C2.96512 12.6667 2.66665 12.3682 2.66665 12C2.66665 11.6318 2.96512 11.3333 3.33331 11.3333H12.6666C13.0348 11.3333 13.3333 11.6318 13.3333 12C13.3333 12.3682 13.0348 12.6667 12.6666 12.6667Z" fill="#777E91"/>
</g>
<path id="Shape_2" fill-rule="evenodd" clip-rule="evenodd" d="M13.3334 8.66659H2.66669C2.2985 8.66659 2.00002 8.96506 2.00002 9.33325C2.00002 9.70144 2.2985 9.99992 2.66669 9.99992H13.3334C13.7015 9.99992 14 9.70144 14 9.33325C14 8.96506 13.7015 8.66659 13.3334 8.66659ZM2.66669 7.33325C1.56212 7.33325 0.666687 8.22868 0.666687 9.33325C0.666687 10.4378 1.56212 11.3333 2.66669 11.3333H13.3334C14.4379 11.3333 15.3334 10.4378 15.3334 9.33325C15.3334 8.22868 14.4379 7.33325 13.3334 7.33325H2.66669Z" fill="#777E91"/>
<g id="Shape_3">
<path d="M6.00002 5.33341C6.00002 5.7016 5.70154 6.00008 5.33335 6.00008C4.96516 6.00008 4.66669 5.7016 4.66669 5.33341C4.66669 4.96522 4.96516 4.66675 5.33335 4.66675C5.70154 4.66675 6.00002 4.96522 6.00002 5.33341Z" fill="#777E91"/>
<path d="M8.66669 5.33341C8.66669 5.7016 8.36821 6.00008 8.00002 6.00008C7.63183 6.00008 7.33335 5.7016 7.33335 5.33341C7.33335 4.96522 7.63183 4.66675 8.00002 4.66675C8.36821 4.66675 8.66669 4.96522 8.66669 5.33341Z" fill="#777E91"/>
<path d="M10.6667 6.00008C11.0349 6.00008 11.3334 5.7016 11.3334 5.33341C11.3334 4.96522 11.0349 4.66675 10.6667 4.66675C10.2985 4.66675 10 4.96522 10 5.33341C10 5.7016 10.2985 6.00008 10.6667 6.00008Z" fill="#777E91"/>
</g>
</g>
</svg>
