<svg width="16" height="16" viewBox="0 0 16 16" fill="none" xmlns="http://www.w3.org/2000/svg">
<g id="icons/Home/Line">
<path id="Shape" fill-rule="evenodd" clip-rule="evenodd" d="M7.99443 2.78082L8.00001 2.77793L8.00584 2.78095L10.9748 4.56232L12 5.18V12.5334C12 12.9288 11.999 13.1451 11.9863 13.3005L11.9847 13.3181L11.9672 13.3196C11.8117 13.3323 11.5954 13.3334 11.2 13.3334H4.80001C4.40464 13.3334 4.1883 13.3323 4.03286 13.3196L4.01528 13.3181L4.01375 13.3005C4.00105 13.1451 4.00001 12.9288 4.00001 12.5334V5.18002L5.02146 4.56461L7.99443 2.78082ZM4.33447 3.42188L0.990366 5.42834C0.674646 5.61777 0.572269 6.02728 0.761701 6.343C0.951133 6.65872 1.36064 6.7611 1.67636 6.57166L2.66668 5.97747V12.5334C2.66668 13.2801 2.66668 13.6535 2.812 13.9387C2.93983 14.1896 3.14381 14.3936 3.39469 14.5214C3.67991 14.6667 4.05327 14.6667 4.80001 14.6667H11.2C11.9467 14.6667 12.3201 14.6667 12.6053 14.5214C12.8562 14.3936 13.0602 14.1896 13.188 13.9387C13.3333 13.6535 13.3333 13.2801 13.3333 12.5334V5.97745L14.3237 6.57166C14.6394 6.7611 15.0489 6.65872 15.2384 6.343C15.4278 6.02728 15.3254 5.61777 15.0097 5.42834L11.6617 3.41957L9.10095 1.87671C8.91477 1.76454 8.7719 1.67846 8.65081 1.61373C8.62255 1.59793 8.59386 1.58322 8.5648 1.56963C8.46403 1.52045 8.37669 1.48772 8.28695 1.46795C8.09792 1.42629 7.9021 1.42629 7.71307 1.46795C7.6231 1.48778 7.53554 1.52063 7.43444 1.57001C7.4059 1.58338 7.37773 1.59782 7.34997 1.61333C7.22872 1.6781 7.08564 1.76431 6.89908 1.87671L4.33447 3.42188Z" fill="#777E91"/>
<path id="Shape_2" fill-rule="evenodd" clip-rule="evenodd" d="M8.66667 13.3334V10.6667C8.66667 10.2985 8.36819 10 8 10C7.63181 10 7.33333 10.2985 7.33333 10.6667V13.3334H8.66667ZM8 8.66669C6.89543 8.66669 6 9.56212 6 10.6667V14.6667H10V10.6667C10 9.56212 9.10457 8.66669 8 8.66669Z" fill="#777E91"/>
</g>
</svg>
