<svg width="16" height="16" viewBox="0 0 16 16" fill="none" xmlns="http://www.w3.org/2000/svg">
<g id="icons/Star/Filled">
<path id="Shape" d="M7.38796 2.08514C7.61956 1.54844 8.38057 1.54844 8.61218 2.08514L10.0655 5.45307C10.1636 5.68032 10.3795 5.83454 10.6263 5.85361L14.3534 6.14161C14.9514 6.18781 15.189 6.93852 14.7265 7.32038L11.9235 9.63456C11.7258 9.79779 11.6392 10.0599 11.7008 10.3088L12.5635 13.7944C12.7053 14.3676 12.087 14.8286 11.5781 14.529L8.33828 12.6217C8.12955 12.4988 7.87059 12.4988 7.66185 12.6217L4.42203 14.529C3.91316 14.8286 3.29481 14.3676 3.43667 13.7944L4.2993 10.3088C4.36089 10.0599 4.27431 9.79779 4.0766 9.63456L1.27368 7.32038C0.811174 6.93852 1.04878 6.18781 1.64677 6.14161L5.37387 5.85361C5.62065 5.83454 5.83655 5.68032 5.93461 5.45307L7.38796 2.08514Z" fill="#23262F"/>
</g>
</svg>
