<svg width="16" height="16" viewBox="0 0 16 16" fill="none" xmlns="http://www.w3.org/2000/svg">
<g id="icons/Modem/Line">
<g id="Shape">
<path d="M4.00001 14.6667C4.3682 14.6667 4.66668 14.3682 4.66668 14H3.33334C3.33334 14.3682 3.63182 14.6667 4.00001 14.6667Z" fill="#777E91"/>
<path d="M12 14.6667C12.3682 14.6667 12.6667 14.3682 12.6667 14H11.3333C11.3333 14.3682 11.6318 14.6667 12 14.6667Z" fill="#777E91"/>
</g>
<path id="Shape_2" fill-rule="evenodd" clip-rule="evenodd" d="M12.6667 8.66659H3.33334C2.96515 8.66659 2.66668 8.96506 2.66668 9.33325V11.9999C2.66668 12.3681 2.96515 12.6666 3.33334 12.6666H12.6667C13.0349 12.6666 13.3333 12.3681 13.3333 11.9999V9.33325C13.3333 8.96506 13.0349 8.66659 12.6667 8.66659ZM3.33334 7.33325C2.22877 7.33325 1.33334 8.22868 1.33334 9.33325V11.9999C1.33334 13.1045 2.22877 13.9999 3.33334 13.9999H12.6667C13.7712 13.9999 14.6667 13.1045 14.6667 11.9999V9.33325C14.6667 8.22868 13.7712 7.33325 12.6667 7.33325H3.33334Z" fill="#777E91"/>
<g id="Shape_3">
<path d="M11.3333 1.33325C10.9651 1.33325 10.6667 1.63173 10.6667 1.99992V7.33325H12V1.99992C12 1.63173 11.7015 1.33325 11.3333 1.33325Z" fill="#777E91"/>
<path d="M4.66667 3.99992C4.29848 3.99992 4 4.2984 4 4.66659V7.33325H5.33333V4.66659C5.33333 4.2984 5.03486 3.99992 4.66667 3.99992Z" fill="#777E91"/>
</g>
<g id="Shape_4">
<path d="M4.66667 10C4.29848 10 4 10.2985 4 10.6667C4 11.0349 4.29848 11.3333 4.66667 11.3333C5.03486 11.3333 5.33333 11.0349 5.33333 10.6667C5.33333 10.2985 5.03486 10 4.66667 10Z" fill="#777E91"/>
<path d="M7.33333 10C6.96514 10 6.66667 10.2985 6.66667 10.6667C6.66667 11.0349 6.96514 11.3333 7.33333 11.3333H11.3333C11.7015 11.3333 12 11.0349 12 10.6667C12 10.2985 11.7015 10 11.3333 10H7.33333Z" fill="#777E91"/>
</g>
</g>
</svg>
